<?xml version="1.0" encoding="utf-8"?>
<!-- Generator: Adobe Illustrator 24.0.1, SVG Export Plug-In . SVG Version: 6.00 Build 0)  -->
<svg version="1.1" id="レイヤー_1" xmlns="http://www.w3.org/2000/svg" xmlns:xlink="http://www.w3.org/1999/xlink" x="0px"
	 y="0px" viewBox="0 0 480 128" style="enable-background:new 0 0 480 128;" xml:space="preserve">
<style type="text/css">
	.st0{fill:url(#SVGID_1_);}
</style>
<linearGradient id="SVGID_1_" gradientUnits="userSpaceOnUse" x1="242.3474" y1="6.626" x2="242.3474" y2="123.5469">
	<stop  offset="0" style="stop-color:#405DE6"/>
	<stop  offset="0.1974" style="stop-color:#5851D8"/>
	<stop  offset="0.3119" style="stop-color:#833A82"/>
	<stop  offset="0.4086" style="stop-color:#C13584"/>
	<stop  offset="0.5095" style="stop-color:#E1306C"/>
	<stop  offset="0.617" style="stop-color:#EC484C"/>
	<stop  offset="0.7251" style="stop-color:#F56064"/>
	<stop  offset="0.8317" style="stop-color:#F77737"/>
	<stop  offset="0.923" style="stop-color:#FCAF45"/>
	<stop  offset="1" style="stop-color:#FFDC80"/>
</linearGradient>
<path class="st0" d="M45.9,118.9h9.2v1.7H26.4v-1.7h9.2V70.7h-9.2v-1.7h19.6V118.9z M40.5,47.5c1.8,0,3.3-0.6,4.5-1.9
	c1.2-1.2,1.9-2.7,1.9-4.5c0-1.8-0.6-3.3-1.9-4.5c-1.2-1.2-2.7-1.9-4.5-1.9c-1.8,0-3.3,0.6-4.5,1.9c-1.2,1.2-1.9,2.7-1.9,4.5
	c0,1.8,0.6,3.3,1.9,4.5C37.3,46.8,38.8,47.5,40.5,47.5z M119.6,83.8c0-5.6-1.7-9.7-5-12.2c-3.3-2.6-7.6-3.8-12.9-3.8
	c-3.4,0-6.4,0.5-8.8,1.6s-4.4,2.4-6,3.9c-1.6,1.5-2.9,3.1-3.8,4.7c-0.9,1.6-1.6,2.9-2.1,4h-0.2V69.1H61.5v1.7h9.2v48.1h-9.2v1.7
	h28.8v-1.7h-9.2V91.7c0-3.2,0.5-6.2,1.5-8.9c1-2.7,2.4-5.1,4.1-7.1c1.8-2,3.8-3.6,6.1-4.7c2.3-1.1,4.8-1.7,7.3-1.7
	c3.1,0,5.4,1,6.9,3c1.5,2,2.2,4.6,2.2,7.7v38.8H100v1.7h28.8v-1.7h-9.2V83.8z M164.2,91l-8.8-2.9c-3.5-1.1-6.2-2.3-8-3.7
	c-1.8-1.3-2.7-3.3-2.7-5.8c0-2.9,1.1-5.2,3.2-6.9c2.1-1.7,5.1-2.6,8.9-2.6c2,0,3.7,0.4,5.2,1.1c1.5,0.7,2.7,1.7,3.7,3
	c1,1.3,1.9,2.7,2.6,4.4c0.7,1.6,1.4,3.3,1.9,5.1h1.3V69.1h-1.3c-0.4,0.6-1,1-1.9,1c-0.9,0-1.6-0.1-2.3-0.4c-0.6-0.3-1.4-0.6-2.2-0.8
	c-0.8-0.3-1.7-0.6-2.8-0.8c-1.1-0.3-2.5-0.4-4.3-0.4c-2.5,0-4.8,0.4-6.9,1.2c-2.1,0.8-3.9,1.9-5.5,3.4c-1.5,1.4-2.7,3.1-3.6,5
	c-0.9,1.9-1.3,4-1.3,6.2c0,2.6,0.4,4.8,1.1,6.5c0.8,1.7,1.7,3.1,2.9,4.1s2.5,1.9,3.9,2.5c1.4,0.6,2.7,1.1,3.9,1.5l9.4,3.2
	c2.1,0.7,3.9,1.7,5.5,2.9c1.6,1.2,2.3,3.4,2.3,6.4c0,3.5-1,6.1-3,7.6c-2,1.6-4.3,2.3-6.8,2.3c-3,0-5.6-0.5-7.8-1.6
	c-2.2-1-4-2.4-5.5-4c-1.5-1.6-2.7-3.4-3.5-5.4c-0.9-2-1.6-3.9-2.2-5.8h-1.3v16.8h1.3c0.2-0.4,0.6-0.8,1-1.1c0.4-0.4,1-0.5,1.9-0.5
	c0.9,0,1.8,0.2,2.9,0.5c1,0.4,2.2,0.7,3.4,1.1c1.2,0.4,2.6,0.8,4.1,1.1c1.5,0.4,3.1,0.5,4.9,0.5c3,0,5.7-0.5,8.1-1.4
	c2.4-1,4.4-2.2,6-3.8c1.6-1.6,2.9-3.4,3.7-5.5c0.8-2.1,1.3-4.2,1.3-6.4c0-3.7-1.2-6.6-3.6-8.9C171.1,94.1,168,92.3,164.2,91z
	 M218.5,117.5c-1.7,2-4,3.1-6.8,3.1c-0.8,0-1.6-0.1-2.5-0.4c-0.8-0.2-1.6-0.7-2.3-1.5c-0.7-0.8-1.3-1.8-1.7-3.2
	c-0.4-1.4-0.7-3.2-0.7-5.5V70.7h17v-1.7h-17V52.6c-0.8,0.6-1.6,1.1-2.5,1.4c-0.9,0.3-1.9,0.4-3.1,0.4c-1.4,0-2.3-0.1-2.9-0.2
	c-0.6-0.2-1.2-0.4-1.8-0.6v15.5H185v1.7h9.2v38.2c0,4.2,1.2,7.5,3.5,9.8c2.4,2.3,6.5,3.5,12.5,3.5c2.4,0,4.4-0.4,6-1.1
	c1.6-0.8,2.9-1.7,3.9-2.9c1-1.2,1.7-2.4,2.2-3.7c0.5-1.3,0.8-2.4,1.1-3.5l-1.7-0.6C221.4,113.1,220.3,115.4,218.5,117.5z M458.3,6.6
	v2.2h-14.4l-41.4,114.1h-4L371,46.1h-0.3l-27.2,75.2h11.3v2.2h-49.3v-2.2h17.8l-16.8-44.5h-37.1l-16.8,44.5h17.8v2.2h-34.4v-2.2h0.1
	c-0.2-0.1-0.4-0.1-0.6-0.2c-2-0.8-3.6-1.7-4.7-2.8c-1.1-1.1-1.9-2.4-2.2-3.8c-0.4-1.4-0.5-2.7-0.5-3.9c0-2.8,0.6-5,1.7-6.7
	c1.1-1.7,2.6-3,4.4-4c1.8-1,3.8-1.8,6-2.5c2.2-0.6,4.4-1.3,6.7-2c2.6-0.9,4.8-1.6,6.5-2.3c1.7-0.6,3.1-1.4,4-2.3
	c1-0.9,1.6-2.1,2-3.5c0.4-1.4,0.5-3.3,0.5-5.7c0-1.9-0.1-3.6-0.4-5.2c-0.2-1.5-0.7-2.8-1.3-3.9c-0.6-1.1-1.6-1.9-2.8-2.5
	c-1.2-0.6-2.8-0.8-4.8-0.8c-2.6,0-4.8,0.5-6.5,1.4c-1.7,0.9-2.6,2.4-2.6,4.5c0,1.4,0.1,2.7,0.4,4c0.2,1.3,0.4,2.3,0.4,2.9
	c0,1.1-0.4,2.1-1.2,2.8c-0.8,0.8-2,1.1-3.5,1.1c-2.6,0-4.3-0.5-4.9-1.4c-0.6-1-1-2.2-1-3.7c0-1.8,0.4-3.4,1.2-5c0.8-1.6,2-3,3.5-4.3
	c1.6-1.2,3.5-2.2,5.9-2.9c2.4-0.7,5.1-1.1,8.1-1.1c3.7,0,6.8,0.5,9.2,1.4c2.5,0.9,4.5,2.2,6,3.7c0.8,0.8,1.4,1.6,1.9,2.5l25-66.3h-9
	V6.6h48.2v2.2h-16.6l33,92.8h0.3l21.3-59L357.2,8.9h-13.4V6.6h48v2.2h-17.4l33,92.8h0.3l33.6-92.8h-17.1V6.6H458.3z M259.3,91.1H259
	c-0.2,1-1.5,2.1-4,3.1l-9,3.6c-2.6,1-4.5,2.5-5.9,4.4c-1.4,1.9-2,4.2-2,7c0,1.2,0.1,2.4,0.4,3.7c0.2,1.3,0.7,2.4,1.3,3.4
	c0.6,1,1.5,1.8,2.7,2.5c1.2,0.6,2.7,1,4.5,1c1.3,0,2.5-0.2,3.6-0.5l8.6-22.9V91.1z M305.4,74.6L287.8,28l-17.6,46.6H305.4z"/>
</svg>
